# xmcd
#
# Track frame offsets:
#	150
#	23017
#	37461
#	52729
#
# Disc length: 1014 seconds
#
# Revision: 1
# Processed by: cddbd v1.4PL0 Copyright (c) Steve Scherf et al.
# Submitted via: audiograbber 1.81.01
#
DISCID=2b03f404
DTITLE=Mark Evangelos - Four for the Road
DYEAR=2003
DGENRE=Blues
TTITLE0=Stoney Lonesome Blues
TTITLE1=I'm In Love With You
TTITLE2=Yonder's Wall
TTITLE3=The Mosquito
EXTD=
EXTT0=
EXTT1=
EXTT2=
EXTT3=
PLAYORDER=
